<?xml version="1.0" standalone="no"?>
<!DOCTYPE svg PUBLIC "-//W3C//DTD SVG 1.1//EN" "http://www.w3.org/Graphics/SVG/1.1/DTD/svg11.dtd" >
<!--
2013-9-30: Created.
-->
<svg>
<metadata>
Created by iconfont
</metadata>
<defs>

<font id="iconfont" horiz-adv-x="1024" >
  <font-face
    font-family="iconfont"
    font-weight="500"
    font-stretch="normal"
    units-per-em="1024"
    ascent="896"
    descent="-128"
  />
    <missing-glyph />
    
    <glyph glyph-name="x" unicode="x" horiz-adv-x="1001"
d="M281 543q-27 -1 -53 -1h-83q-18 0 -36.5 -6t-32.5 -18.5t-23 -32t-9 -45.5v-76h912v41q0 16 -0.5 30t-0.5 18q0 13 -5 29t-17 29.5t-31.5 22.5t-49.5 9h-133v-97h-438v97zM955 310v-52q0 -23 0.5 -52t0.5 -58t-10.5 -47.5t-26 -30t-33 -16t-31.5 -4.5q-14 -1 -29.5 -0.5
t-29.5 0.5h-32l-45 128h-439l-44 -128h-29h-34q-20 0 -45 1q-25 0 -41 9.5t-25.5 23t-13.5 29.5t-4 30v167h911zM163 247q-12 0 -21 -8.5t-9 -21.5t9 -21.5t21 -8.5q13 0 22 8.5t9 21.5t-9 21.5t-22 8.5zM316 123q-8 -26 -14 -48q-5 -19 -10.5 -37t-7.5 -25t-3 -15t1 -14.5
t9.5 -10.5t21.5 -4h37h67h81h80h64h36q23 0 34 12t2 38q-5 13 -9.5 30.5t-9.5 34.5q-5 19 -11 39h-368zM336 498v228q0 11 2.5 23t10 21.5t20.5 15.5t34 6h188q31 0 51.5 -14.5t20.5 -52.5v-227h-327z" />
    

    
    <glyph glyph-name="shuangjianxia" unicode="&#58893;" d="M515.1538 280.7411 515.3877 280.5082 839.6012 604.7054 813.5937 630.7128 515.1558 332.2911 216.719 630.7128 190.7115 604.7054 514.922 280.5092ZM813.5927 326.559 515.1548 28.1363 216.719 326.559 190.7115 300.5506 514.922-23.6456 515.1548-23.4127 515.3877-23.6456 839.6022 300.5506Z"  horiz-adv-x="1000" />

    
    <glyph glyph-name="jiantou" unicode="&#58983;" d="M72.284 771.124 512 300 72.284-171.123 511.999-171.123 951.716 300 512 771.124Z"  horiz-adv-x="1024" />

    
    <glyph glyph-name="ji" unicode="&#58918;" d="M511.49858-169.710848c-63.444984 0-125.000945 12.4301-182.962032 36.945447-55.972802 23.675212-106.237603 57.56302-149.397588 100.723006s-77.047794 93.423763-100.721982 149.396565C53.901631 175.314233 41.47153 236.871217 41.47153 300.315178S53.901631 425.317147 78.416977 483.27721c23.674189 55.972802 57.561997 106.237603 100.721982 149.397588S272.562722 709.721569 328.536548 733.396781c57.961086 24.515347 119.517047 36.945447 182.962032 36.945447 63.443961 0 125.000945-12.4301 182.962032-36.945447 55.972802-23.674189 106.23658-57.561997 149.396565-100.721982s77.047794-93.423763 100.723006-149.397588c24.514323-57.960063 36.945447-119.517047 36.945447-182.961008s-12.4301-125.000945-36.945447-182.962032c-23.675212-55.972802-57.56302-106.23658-100.723006-149.396565s-93.423763-77.047794-149.396565-100.723006C636.499525-157.279724 574.942541-169.710848 511.49858-169.710848zM511.49858 729.40998c-236.603743 0-429.094802-192.491059-429.094802-429.093778 0-236.603743 192.491059-429.093778 429.094802-429.093778s429.093778 192.490036 429.093778 429.093778C940.592358 536.918921 748.101299 729.40998 511.49858 729.40998zM771.292488 186.575718c-3.087315 7.540743-9.31618 13.649881-18.517749 18.160615-30.223349 13.736862-54.337559 27.726481-71.591525 41.542138l-0.163729 0.141216c-0.037862 0.034792-0.410346 0.367367-1.797949 1.246387l-8.93244 5.662977 68.737524 0c8.552793 0 15.341407 2.64013 20.753673 8.072863 5.439896 5.139044 8.052396 11.490705 8.052396 19.479657 0 8.016581-2.63399 14.561647-8.054443 20.009729-4.9088 4.631484-11.913331 7.014764-20.751626 7.014764l-82.482573 0L656.544047 469.798221l46.690392 0c8.514931 0 15.09786 2.617617 20.125363 8.000208 5.109368 5.143137 7.562233 11.171434 7.562233 18.49626 0 7.968485-2.415003 14.305821-7.385201 19.371186-5.018294 4.046153-11.868305 6.265704-20.361747 6.598278l-46.630017 0 0 9.934257c0 8.626471-2.933819 15.284101-8.970302 20.351514-5.497201 4.861728-12.148691 7.201006-20.394493 7.201006-8.621355 0-15.637142-2.51017-21.449521-7.67275-4.927219-4.65502-7.356548-11.178597-7.356548-19.87977l0-9.934257L406.009014 522.264153l0 9.934257c0 8.626471-2.933819 15.284101-8.970302 20.351514-5.497201 4.862751-12.149714 7.201006-20.395516 7.201006-8.619308 0-15.635095-2.51017-21.448498-7.67275-4.928243-4.65502-7.356548-11.177574-7.356548-19.87977l0-9.934257-45.01217 0c-8.586562 0-15.396665-2.489704-20.821211-7.610328-4.974291-5.013177-7.426133-11.041474-7.426133-18.358113 0-8.035 2.451842-14.408151 7.496741-19.482727 4.977361-4.696975 11.788487-7.013741 20.750603-7.013741l45.01217 0 0-161.89318-80.803327 0c-9.166777 0-16.337083-2.536776-21.310352-7.541767-5.442966-5.14109-8.055466-11.491729-8.055466-19.48375 0-8.033977 2.632967-14.576997 8.05035-20.006659 5.04183-5.079692 12.011568-7.54586 21.315468-7.54586l68.37118 0-8.518001-5.631254c-3.599991-2.379187-7.133468-4.838192-10.504238-7.30743l-0.107447-0.074701c-17.998933-12.040221-39.083134-22.801309-62.667272-31.987528l-0.13303-0.049119c-9.699919-3.27151-16.058744-8.439206-19.442818-15.797801l-0.107447-0.211824c-3.306302-5.930059-3.614317-13.017478-0.937348-21.659299 3.39226-6.956436 8.692986-12.434194 15.759939-16.287965 7.448646-2.818185 16.45681-2.420119 26.78811 1.160429 20.163225 7.270591 42.898019 19.240203 67.537186 35.561937 22.106484 13.908778 46.565549 34.539654 72.759117 61.358463l0.902556 0.925069 69.237921 0-4.727675-5.146207c-4.313236-4.695952-6.675026-11.478426-7.019881-20.158109l0-24.657586-75.210959 0c-8.586562 0-15.396665-2.489704-20.821211-7.610328-4.973268-5.012154-7.426133-11.040451-7.426133-18.358113 0-8.036024 2.451842-14.408151 7.495718-19.482727 4.977361-4.697999 11.788487-7.013741 20.750603-7.013741l75.210959 0 0-35.178197L298.351062 115.721996c-9.302877 0-16.272615-2.466168-21.308305-7.53972-5.445012-5.135974-8.057513-11.486612-8.057513-19.484773 0-8.025791 2.63399-14.569834 8.052396-20.008706 4.976338-5.007037 12.146645-7.543813 21.313422-7.543813l411.595242 0c8.54563 0 15.334243 2.641153 20.754696 8.073886 5.438872 5.143137 8.051373 11.494799 8.051373 19.478633 0 8.025791-2.63399 14.569834-8.052396 20.008706-4.910846 4.63353-11.916401 7.015787-20.753673 7.015787l-175.312818 0 0 35.178197 72.415286 0c8.514931 0 15.09786 2.617617 20.125363 8.001231 5.109368 5.143137 7.562233 11.17041 7.562233 18.495236 0 7.967462-2.415003 14.304797-7.385201 19.371186-5.01727 4.046153-11.867282 6.265704-20.361747 6.597255l-72.354911 0 0 24.716938c0 8.656147-2.587941 15.158235-7.913227 19.877723l-6.057973 5.367241 74.90499 0 0.916882-1.035586c16.929578-19.11843 36.359093-37.286208 57.752332-53.996798 22.084994-16.680914 45.814442-31.321356 70.489424-43.488467 8.634658-4.242627 17.331737-5.40101 25.925463-3.454682 7.331989 1.890047 13.101389 6.402827 17.546631 13.773701C771.520685 172.099005 772.561387 179.311267 771.292488 186.575718zM598.374206 307.90504 406.009014 307.90504l0 21.451568 192.365192 0L598.374206 307.90504zM598.374206 375.486228 406.009014 375.486228l0 25.674753 192.365192 0L598.374206 375.486228zM598.374206 447.290601 406.009014 447.290601l0 22.50762 192.365192 0L598.374206 447.290601z"  horiz-adv-x="1024" />

    
    <glyph glyph-name="naozhong" unicode="&#58913;" d="M513.451 709.854c-207.394 0-375.467-168.107-375.467-375.467 0-94.106 34.714-180.070 91.938-245.965l-87.825-107.674 26.436-21.572 85.111 104.294c67.447-64.7 158.942-104.533 259.823-104.533 101.103 0 192.802 40.038 260.318 105.028l85.060-104.926 26.539 21.504-87.893 108.442c56.934 65.826 91.443 151.569 91.443 245.402-0.017 207.36-168.158 375.467-375.484 375.467zM513.451-6.912c-188.211 0-341.333 153.105-341.333 341.299 0 188.228 153.122 341.333 341.333 341.333s341.333-153.105 341.333-341.333c0-188.211-153.122-341.299-341.333-341.299zM359.1 812.288h-101.393c-94.259 0-170.667-76.407-170.667-170.667v-102.707h48.538l223.522 224.802v48.572zM324.966 777.779l-203.793-204.732v68.574c0 75.264 61.252 136.533 136.533 136.533h67.26l0-0.375zM769.707 812.288h-101.461v-48.572l223.573-224.802 48.555-0v102.707c0 94.259-76.442 170.667-170.667 170.667zM906.24 573.047h-0.239l-203.639 204.732v0.375h67.345c75.281 0 136.533-61.269 136.533-136.533v-68.574zM496.64 334.421h-188.177v-34.133h222.31v307.2h-34.133z"  horiz-adv-x="1024" />

    
    <glyph glyph-name="anquanshezhi" unicode="&#58909;" d="M512.005 831.429c-247.109 0-447.431-200.33-447.431-447.432 0-247.105 200.322-447.427 447.431-447.427 77.009 0 149.462 19.472 212.734 53.738 0 0 9.108 5.194 8.632 16.797-0.424 10.281-9.062 20.24-20.242 20.24-4.453 0.178-7.899-1.329-7.899-1.329-57.48-31.091-123.285-48.761-193.224-48.761-224.64 0-406.752 182.109-406.752 406.745 0 224.645 182.113 406.752 406.752 406.752 224.645 0 406.752-182.108 406.752-406.752 0-70.245-17.826-136.322-49.174-193.981 0 0-2.314-6.074-2.314-9.495 0-11.21 9.088-20.296 20.295-20.296 7.435 0 13.918 4.009 17.452 9.973v0l0.072-0.040c34.638 63.533 54.339 136.381 54.339 213.839 0 247.101-200.313 447.43-447.423 447.43zM512.235 671.546c-85.625 0-155.034-69.414-155.034-155.029v-103.873c-28.543 0-51.672-23.142-51.672-51.679v-206.712c0-28.546 23.131-51.683 51.672-51.683h310.068c28.542 0 51.683 23.136 51.683 51.683v206.711c0.001 28.535-23.138 51.676-51.678 51.679l-0 103.874c0 85.615-69.414 155.029-155.039 155.029zM397.864 516.517c0 57.084 47.662 114.564 114.374 114.564 67.136 0 114.288-57.479 114.288-114.564v-103.873l-228.662 0v103.873zM678.282 341.238v-168.585c0-22.605-3.258-30.507-25.864-30.507h-274.716c-22.606 0-30.955 7.902-30.955 30.507l0 168.585c0 22.605 8.349 31.489 30.955 31.489h274.716c22.606 0 25.864-8.884 25.864-31.489z"  horiz-adv-x="1024" />

    
    <glyph glyph-name="shi" unicode="&#58920;" d="M511.998977 747.419146c-247.102864 0-447.418123-200.317305-447.418123-447.417099 0-247.102864 200.315258-447.419146 447.418123-447.419146S959.418123 52.898159 959.418123 300.001023C959.418123 547.101841 759.101841 747.419146 511.998977 747.419146zM511.998977-87.761418c-214.155475 0-387.762441 173.605943-387.762441 387.762441 0 214.153428 173.606966 387.760394 387.762441 387.760394s387.762441-173.60799 387.762441-387.760394C899.761418 85.844525 726.154451-87.761418 511.998977-87.761418zM297.791313 188.796292l1.14201 0c12.434194 0 22.938432 10.505261 22.938432 22.938432L321.871755 486.988742c0 12.43317-10.504238 22.938432-22.938432 22.938432l-1.14201 0c-12.434194 0-22.938432-10.504238-22.938432-22.938432l0-275.254018C274.852882 199.301554 285.35712 188.796292 297.791313 188.796292zM403.438469 564.178775l-1.14201 0c-12.862959 0-22.938432-10.075473-22.938432-22.938432l0-227.855498c0-26.795273-1.901303-53.074799-5.65172-78.113055-4.476965-22.911826-11.08036-42.901089-20.173458-61.087287-16.708544-32.910551-43.605124-59.414181-84.686774-83.431178-10.076496-6.046716-13.974269-19.063171-9.067516-30.277584l0.309038-0.706081 0.606821-0.607844c2.616594-5.376451 7.05058-9.04705 13.532201-11.208273 2.020006-0.673335 4.071735-1.014096 6.096858-1.014096 3.78214 0 7.605212 1.14508 12.095479 3.6399 21.292955 12.32777 40.154535 25.747407 56.124252 39.943734 38.812981 35.95898 61.34823 78.059843 70.919213 132.4895 4.588505 25.814945 6.915503 56.220443 6.915503 90.373287L426.377924 541.240343C426.3769 553.674537 415.872662 564.178775 403.438469 564.178775zM746.648205 510.30682c13.07683 0 22.938432 9.861602 22.938432 22.938432l0 1.14201c0 12.862959-10.076496 22.938432-22.938432 22.938432L483.95834 557.325693c-12.862959 0-22.938432-10.075473-22.938432-22.938432l0-1.14201c0-13.07683 9.861602-22.938432 22.938432-22.938432l107.836007 0 0-59.199287-55.869449 0c-11.035334 0-21.099551-2.102894-29.118178-6.080485-18.463514-7.77815-32.399921-21.532409-40.303938-39.772842-4.073782-9.311063-6.053879-19.000749-6.053879-29.622668l0-267.829931c0-12.861936 10.075473-22.938432 22.938432-22.938432l1.14201 0c12.43317 0 22.938432 10.505261 22.938432 22.938432l0 267.829931c0 8.192589 2.52245 14.531971 7.938809 19.948331l0.121773 0.127913c5.445012 5.939269 12.307304 8.951883 20.397562 8.951883l55.869449 0 0-343.114568c0-12.43317 10.505261-22.938432 22.938432-22.938432l0.571005 0c12.861936 0 22.938432 10.076496 22.938432 22.938432l0 343.114568 56.43943 0c7.602142 0 14.45727-3.095501 19.825534-8.951883l0.25071-0.251733c5.796006-5.313006 8.380878-11.42726 8.380878-19.825534L723.139791 161.48118c0-9.020444-2.694365-15.651468-8.235568-20.268626l-0.274246-0.25071c-5.266957-5.266957-11.978822-7.937786-19.948331-7.937786l-3.427052 0c-12.43317 0-22.938432-10.505261-22.938432-22.938432l0-1.714038c0-12.43317 10.505261-22.938432 22.938432-22.938432l3.427052 0c29.749558 0 56.341193 17.765619 69.423139 46.424332 3.791349 8.668427 5.481851 17.803481 5.481851 29.622668L769.586636 375.631538c0 30.801517-16.917298 56.748469-45.192272 69.382207-8.66638 4.044106-18.663058 6.094812-29.712719 6.094812l-56.43943 0 0 59.199287L746.648205 510.307843z"  horiz-adv-x="1024" />

    
    <glyph glyph-name="android" unicode="&#58919;" d="M827.202974 181.098386c0-34.833744 28.273394-63.954227 62.831578-63.954227 35.080726 0 62.831578 29.120483 62.831578 63.954227L952.86613 427.576898c0 35.352203-27.750852 63.424541-62.831578 63.424541-34.558184 0-62.831578-28.072337-62.831578-63.424541L827.202974 181.098386 827.202974 181.098386zM602.575286 636.59773c0 16.63459 14.140269 30.163526 30.892227 30.163526 17.283685 0 31.422933-13.528936 31.422933-30.163526 0-17.160193-14.139248-30.683006-31.422933-30.683006C616.715555 605.914724 602.575286 619.437536 602.575286 636.59773L602.575286 636.59773zM363.82774 636.59773c0 16.63459 13.60548 30.163526 30.36152 30.163526 17.280623 0 30.892227-13.528936 30.892227-30.163526 0-17.160193-13.617727-30.683006-30.892227-30.683006C377.43322 605.914724 363.82774 619.437536 363.82774 636.59773L363.82774 636.59773zM234.495565 37.587159c0-27.03848 21.470143-48.867871 49.215892-48.867871l55.506806 0 0-137.273383c0-34.331613 27.227289-63.445973 62.825454-63.445973 34.03054 0 62.831578 29.113339 62.831578 63.445973L464.875296-11.280712l97.390783 0 0-137.273383c0-34.331613 26.698624-63.445973 62.302913-63.445973 35.08787 0 62.837702 29.113339 62.837702 63.445973L687.406693-11.280712l55.493539 0c27.751872 0 49.222016 21.82837 49.222016 48.867871L792.122247 489.451162 234.495565 489.451162 234.495565 37.587159 234.495565 37.587159zM791.072061 528.958186c-8.376999 85.275364-64.927869 156.518641-146.605655 193.95693l51.316266 74.34689c3.371007 4.89883 2.616792 10.933576-1.573749 13.008435-4.190541 2.595359-8.8975 1.03794-12.565499-3.123004l-53.934078-76.963682c-36.12581 13.004353-74.340767 21.322158-115.708325 21.322158s-80.632702-8.317805-116.23699-21.322158l-52.883891 76.963682c-3.660855 4.161964-8.374958 6.755283-12.565499 3.123004-4.185438-2.604545-5.493834-8.121852-2.09527-13.008435l51.832684-74.34689c-81.677786-38.486434-139.274759-108.158003-146.604634-193.95693L791.072061 528.958186 791.072061 528.958186zM71.13387 181.098386c0-34.833744 27.227289-63.954227 62.831578-63.954227 34.03054 0 62.831578 29.120483 62.831578 63.954227L196.797026 427.576898c0 35.352203-28.800018 63.424541-62.831578 63.424541-35.604289 0-62.831578-28.072337-62.831578-63.424541L71.13387 181.098386 71.13387 181.098386z"  horiz-adv-x="1024" />

    
    <glyph glyph-name="gengduo" unicode="&#58921;" d="M283.119661 311.42726m-81.864496 0a80 80 0 1 0 163.728992 0 80 80 0 1 0-163.728992 0ZM738.490919 311.42726m-81.864496 0a80 80 0 1 0 163.728992 0 80 80 0 1 0-163.728992 0ZM510.80529 311.42726m-81.864496 0a80 80 0 1 0 163.728992 0 80 80 0 1 0-163.728992 0Z"  horiz-adv-x="1024" />

    
    <glyph glyph-name="liaotian" unicode="&#58935;" d="M511.556189-152.200726c-95.004865 0-186.860046 24.363177-266.439887 70.578041L37.170058-141.050396l47.788846 210.523102C39.297944 139.390189 15.232361 218.756726 15.232361 299.760892c0 249.225857 222.650504 451.98226 496.323827 451.98226 273.654401 0 496.282543-202.756404 496.282543-451.98226C1007.840452 50.557398 785.21059-152.200726 511.556189-152.200726zM252.96901-22.724795l10.214541-6.256363c73.364763-44.979761 159.262895-68.747749 248.374358-68.747749 243.609407 0 441.810724 178.307217 441.810724 397.4898S755.165596 697.271334 511.556189 697.271334c-243.63005 0-441.853729-178.327859-441.853729-397.510442 0-73.791372 23.107432-146.179062 66.833168-209.372289l6.808547-9.853299-32.683779-143.922161L252.96901-22.724795zM405.339067 298.420857c0-29.214138-23.681978-52.875474-52.896116-52.875474-29.214138 0-52.896116 23.661336-52.896116 52.875474 0 29.193495 23.681978 52.875474 52.896116 52.875474C381.657089 351.296331 405.339067 327.614353 405.339067 298.420857zM588.965139 298.420857c0-29.214138-23.702621-52.875474-52.896116-52.875474-29.23478 0-52.896116 23.661336-52.896116 52.875474 0 29.193495 23.661336 52.875474 52.896116 52.875474C565.262518 351.296331 588.965139 327.614353 588.965139 298.420857zM772.570568 298.420857c0-29.214138-23.681978-52.896116-52.896116-52.896116s-52.896116 23.683698-52.896116 52.896116 23.681978 52.875474 52.896116 52.875474S772.570568 327.634995 772.570568 298.420857z"  horiz-adv-x="1024" />

    
    <glyph glyph-name="ruzhu" unicode="&#58915;" d="M916.658 664.944c-22.991 15.581-49.827 17.62-71.789 15.417 2.16 30.433 3.259 62.2 3.259 94.556 0 17.156-13.908 31.424-31.063 31.424l-610.906 0c-17.156 0-31.063-14.268-31.063-31.424 0-32.33 1.096-63.894 3.253-94.305-21.807 2.070-48.255-0.191-70.96-15.578-27.928-18.927-42.090-51.534-42.090-96.83 0-77.884 39.44-146.099 114.058-197.234 41.086-28.156 81.972-43.627 100.131-49.675 16.816-28.031 35.537-53.719 56.152-76.897 56.534-63.561 113.114-93.148 144.837-105.658v-115.227h-196.659c-17.156 0-31.063-14.055-31.063-31.211s13.908-31.211 31.063-31.211h455.591c17.156 0 31.063 14.055 31.063 31.211s-13.908 31.211-31.063 31.211l-197.535 0v115.227c31.722 12.51 88.741 42.093 145.275 105.653 20.531 23.083 39.418 48.652 56.181 76.549 17.609 5.798 59.388 21.311 101.261 50.006 74.616 51.135 114.108 119.328 114.108 197.212-0 45.297-14.111 77.858-42.039 96.785zM213.156 423.103c-56.888 39.437-85.732 88.243-85.732 145.056 0 16.064 2.555 36.962 14.726 45.295 11.027 7.55 29.107 6.069 42.464 3.194 8.137-63.87 21.467-122.77 39.912-176.144 3.778-10.931 7.795-21.611 11.997-32.087-7.667 4.377-15.533 9.256-23.368 14.686zM644.168 289.137c-56.092-64.5-112.856-88.577-132.643-95.539-43.321 15.066-263.923 113.368-273.951 550.32h548.075c-2.43-105.401-17.371-199.601-44.504-279.507-23.489-69.178-56.118-128.289-96.977-175.274zM810.889 423.103c-8.199-5.684-16.435-10.768-24.439-15.298 4.296 10.672 8.396 21.554 12.247 32.699 18.429 53.328 31.751 112.173 39.889 175.979 13.823 3.021 32.398 4.365 43.219-2.967 12.245-8.3 14.815-29.247 14.815-45.357-0-56.813-28.845-105.617-85.733-145.056z"  horiz-adv-x="1024" />

    
    <glyph glyph-name="fuhuaqi" unicode="&#58882;" d="M323.412 787.869l383.746 53.045c15.139 2.092 25.715 16.060 23.62 31.199-2.092 15.139-16.060 25.715-31.199 23.623l-383.746-53.045c-15.139-2.092-25.715-16.060-23.62-31.199 2.092-15.139 16.060-25.716 31.199-23.623zM347.774 343.722l-152.28-279.675c0 0-46.065-78.057 41.595-80.050 64.413-1.464 553.422 0 553.422 0s79.628 8.127 33.479 83.014c-47.104 76.436-187.976 332.053-187.976 332.053s-68.187 114.66-161.851-83.014c-30.996-65.42-86.435 100.336-126.389 27.671zM649.851 80.847c0-22.923-18.584-41.507-41.507-41.507-22.923 0-41.507 18.584-41.507 41.507 0 22.923 18.584 41.507 41.507 41.507 22.923 0 41.507-18.584 41.507-41.507zM580.673 288.38c22.923 0 41.507-18.584 41.507-41.507 0-22.923-18.584-41.507-41.507-41.507-22.923 0-41.507 18.584-41.507 41.507 0 22.924 18.584 41.507 41.507 41.507zM456.154 205.367c15.283 0 27.671-12.388 27.671-27.671 0-15.283-12.388-27.671-27.671-27.671-15.283 0-27.671 12.388-27.671 27.671 0 15.282 12.388 27.671 27.671 27.671zM914.907 115.762l-182.068 310.847c0 0.044 0.025 0.083 0.025 0.128v276.71c0 15.283-12.388 27.671-27.671 27.671-15.283 0-27.671-12.388-27.671-27.671v-276.711c0-0.044 0.025-0.083 0.025-0.128 0 0 198.103-354.979 210.655-381.339 24.792-52.069-34.629-117.193-79.313-117.193-229.648 0-520.232 0-584.246 0-58.293 0-118.831 53.824-86.522 121.205 27.536 57.426 207.323 377.326 207.323 377.326 0 0.044 0.025 0.083 0.025 0.128l-0 276.711c0 15.283-12.388 27.671-27.671 27.671-15.283 0-27.671-12.388-27.671-27.671v-276.711c0-0.044 0.025-0.083 0.025-0.128 0 0-180.081-314.11-206.722-376.806-35.413-83.337 44.532-175.941 137.52-174.76 4.468 0.057 8.672-0.791 13.041-0.415l0.426-0.767h554.067l0.426 0.775c4.4-0.382 8.633 0.407 13.132 0.407 84.053 0 146.813 66.763 146.813 150.817 0.002 35.636-15.157 59.667-33.947 89.903zM511.495 731.118c0-30.565 24.778-55.342 55.342-55.342s55.342 24.778 55.342 55.342c0 30.565-24.778 55.342-55.342 55.342-30.565 0-55.342-24.778-55.342-55.342zM428.482 565.092c0-15.282 12.389-27.671 27.671-27.671s27.671 12.389 27.671 27.671c0 15.282-12.389 27.671-27.671 27.671-15.282 0-27.671-12.389-27.671-27.671z"  horiz-adv-x="1024" />

    
    <glyph glyph-name="shangjin" unicode="&#58883;" d="M590.672-61.599c-75.074-4.778-163.243 0-163.243 0s-361.277 7.954-361.277 284.677c0 276.726 285.401 455.078 285.401 455.078h312.643c0 0 290.935-213.596 290.935-460.189 0.001-246.641-364.459-281.958-364.459-279.565v0 0zM660.531 720.96h-300.406l-106.182 115.429c0 0 78.885-23.364 127.418-23.364 48.508 0 131.387 24.125 131.387 24.125s76.805-24.125 125.338-24.125c48.476 0 131.42 24.837 131.42 24.837l-108.975-116.901zM465.012 100.315h89.611v80.28h119.789v64.985h-119.789v35.347h119.789v64.985h-84.436l100.426 185.629h-98.22l-64.966-125.355c-7.454-14.664-13.197-28.468-17.216-41.454-3.432 11.993-9.161 25.748-17.254 41.454l-63.723 125.355h-98.139l99.122-185.629h-83.209v-64.985h118.218v-35.347l-118.222-0v-64.985h118.218v-80.28zM450.306 60.493z"  horiz-adv-x="1024" />

    
    <glyph glyph-name="cnkuajing" unicode="&#58881;" d="M661.007709 683.479769c47.971571-31.507598 96.312556-63.254649 145.936767-95.846952-14.765285-15.844873-26.743084-30.269397-40.520879-42.730197-6.008854-5.412266-15.617699-9.18929-23.738657-9.467629-17.281595-0.579191-34.83539 3.412726-51.947116 1.879813-8.167007-0.721431-15.58393-9.773598-23.341614-15.049764 4.793166-5.298679 42.525536-29.145807 54.92903-38.050618 9.018398-6.490831 17.281595-15.811104 22.273283-25.680892 9.541307-18.838044 24.52865-58.540278 24.52865-58.540278s26.487258 11.943007 26.061562 29.713742c-0.369414 15.254425 1.067308 30.610158 2.595105 45.835931 0.556679 5.503341 2.140757 12.647041 5.957689 15.759939 16.390295 13.374612 33.785477 25.527396 52.486398 39.356356 4.447289-7.320733 8.200776-12.647041 11.085476-18.400069 20.041452-39.890522 39.623439-80.024591 60.074214-119.716592 3.356444-6.514367 9.592472-14.953573 15.611559-15.987113 13.136182-2.254344 29.894867 17.252943 28.237111 31.019481-7.013741 58.154491-14.044878 116.314099-21.910009 174.355003-2.100848 15.486716-0.737804 27.867698 12.079106 38.862099 70.64292 60.624752 90.321098 134.124743 12.510942 98.880031-24.01188-10.880815-46.50108-25.726941-68.052932-41.10007-10.926864-7.80271-19.894096-10.148128-32.830733-6.815219-53.833069 13.891382-107.943454 26.640754-161.906483 39.986713C677.761278 719.99645 673.52479 717.849554 661.007709 683.479769L661.007709 683.479769zM698.296987 357.054301c4.270257 2.828418 7.201006 9.94449 8.762571 13.601786 19.825534 46.557362-50.180889 117.665887-91.746564 90.468454-71.239508-62.703087-135.061069-125.980249-216.795605-171.158195C247.867274 206.687642 85.801155 186.634934 90.923826 186.577628c-35.511795-2.140757-44.615127 21.35947-15.537881 42.258453 30.003338 21.564132-63.117526-10.517541-73.578786-58.699913-0.857531-10.55745 6.439666-58.404178 118.574582-51.334155 66.724681 6.258541 170.07349 22.284539 233.145991 44.831045C489.617224 212.269777 574.292742 258.436236 698.296987 357.054301L698.296987 357.054301zM587.491345 864.996892C588.740802 864.860792 588.644611 864.877165 587.491345 864.996892L587.491345 864.996892 587.491345 864.996892zM582.021773 865.621109c1.311879-0.153496 2.606361-0.312108 3.901867-0.460488 0.647753-0.068562 1.169639-0.119727 1.567705-0.164752C586.525344 865.110479 584.747861 865.309 582.021773 865.621109L582.021773 865.621109zM976.154295 363.352751c-9.790994-1.3743-19.059078-1.697665-26.640754-31.331589-3.242857-12.681834-4.219091-22.165836-22.466688-56.183604-18.297738-20.956288-31.530111-27.328415-60.675918-17.815761C761.988588 347.479225 651.455145 271.043369 705.174628 150.486642c50.011021-110.652146-99.913571-162.616658-114.071012-42.530652 17.980513 161.957649-138.724505 118.376061-175.399799 29.906124-42.065048-73.885777-60.778248-110.328781-123.356492-83.187631-24.857131 16.560164-47.87538 35.69906-68.51342 57.19463-22.852474-5.582135-48.267307-8.722662-75.077929-8.722662-3.418866 0-6.820336 0.056282-10.199293 0.158612 10.029424-13.925151 39.85573-50.697659 52.31039-61.158918 86.606497-85.772502 205.374484-138.753157 336.545966-138.753157 208.487382 0 385.851928 133.681652 452.144774 320.428893l-0.397043 0c10.472516 28.67918 18.372439 58.591443 23.228027 89.51985l5.354961 34.710546C1007.741711 348.052277 999.103983 366.572072 976.154295 363.352751L976.154295 363.352751zM101.169167 248.792599c40.225143-0.675382 27.163663 67.144236 30.093389 93.183286 11.210319 81.711 73.284073 174.906565 197.043748 99.009991-10.234085 5.54325 55.564503-47.296189 116.262934-32.67826 62.742996 15.106046 99.356892 66.531276 97.011474 182.919053 0.334621 93.706195 96.374978 155.602917 148.032498 147.963936 0 0 52.481282-5.287423 56.717769 39.418778 2.873444 30.241768-10.904351 42.656519-10.904351 42.656519-14.101159 6.786567-43.388183 31.286564-149.502989 43.893696-8.592702 0.880043-37.8347 3.685949-59.074444 3.663436-0.278339 0-0.550539 0.011256-0.835018 0.011256-266.323625 0-482.22179-215.187991-482.22179-480.642828C43.793412 315.403692 48.518017 249.667525 101.169167 248.792599L101.169167 248.792599zM101.169167 248.792599"  horiz-adv-x="1024" />

    
    <glyph glyph-name="shenfenrenzheng" unicode="&#58912;" d="M512 896c-282.304 0-512-229.696-512-512s229.696-512 512-512c282.368 0 512 229.696 512 512s-229.632 512-512 512zM512-85.312c-258.752 0-469.312 210.496-469.312 469.312 0 258.752 210.56 469.312 469.312 469.312 258.816 0 469.376-210.56 469.376-469.312 0-258.816-210.56-469.312-469.376-469.312zM736 175.040h-481.6c8.96 96.512 77.632 177.92 173.184 202.048 8.896 2.24 15.36 9.984 16.064 19.136 0.64 9.216-4.608 17.728-13.12 21.248-52.096 21.696-85.696 72.128-85.696 128.576 0 76.8 62.464 139.264 139.264 139.264 76.736 0 139.264-62.464 139.264-139.264 0-11.776 9.536-21.312 21.312-21.312 11.84 0 21.376 9.536 21.376 21.312 0 100.288-81.664 181.952-181.952 181.952-100.288 0-181.952-81.6-181.952-181.952 0-57.024 26.304-109.376 69.76-143.232-96.832-43.456-161.152-140.032-161.152-249.024 0-11.84 9.536-21.376 21.312-21.376h503.936c11.84 0 21.376 9.536 21.376 21.376 0 11.712-9.536 21.248-21.376 21.248zM844.608 187.52l-105.536 87.808c13.952 21.824 22.144 47.616 22.144 75.328 0 77.376-62.976 140.352-140.352 140.352-77.44 0-140.352-62.976-140.352-140.352 0-77.312 62.912-140.352 140.352-140.352 34.304 0 65.664 12.416 90.112 32.96l106.432-88.576c3.968-3.328 8.832-4.928 13.632-4.928 6.144 0 12.16 2.624 16.384 7.68 7.488 9.088 6.272 22.528-2.816 30.080zM620.8 252.992c-53.888 0-97.664 43.84-97.664 97.664 0 53.888 43.84 97.664 97.664 97.664s97.664-43.84 97.664-97.664c0.064-53.824-43.776-97.664-97.664-97.664z"  horiz-adv-x="1024" />

    
    <glyph glyph-name="shuangjianxia-copy" unicode="&#58894;" d="M508.846 391.259l-0.234 0.233-324.213-324.197 26.007-26.007 298.438 298.422 298.437-298.422 26.007 26.007-324.211 324.196zM210.407 345.441l298.438 298.422 298.436-298.423 26.007 26.008-324.678 324.196-324.215-324.196z"  horiz-adv-x="1000" />

    
    <glyph glyph-name="chongzhi" unicode="&#58908;" d="M329.606 290.828l51.206 17.811c10.367-77.19 56.39-114.309 138.035-111.316 72.704 1.46 110.553 29.673 113.544 84.603 7.41 41.534-34.161 71.243-124.676 89.053-112.814 22.264-166.246 64.566-160.298 126.903 5.914 75.697 57.886 115.771 155.845 120.224 96.465 0 153.619-40.84 171.43-122.45l-53.434-15.584c-16.349 62.338-54.197 93.506-113.543 93.506-69.782-1.497-106.134-26.716-109.092-75.696-1.496-37.118 36.353-63.834 113.545-80.149 121.685-22.263 179.57-68.286 173.656-138.033-7.443-77.192-62.338-117.999-164.75-122.45-109.857-2.961-173.657 41.532-191.468 133.578zM489.631 663.349h41.307v-562.043h-41.307v562.043zM513.34-61.247c-60.254 0-118.718 11.806-173.768 35.090-53.161 22.485-100.898 54.67-141.888 95.66-40.99 40.989-73.174 88.728-95.659 141.889-23.284 55.050-35.090 113.514-35.090 173.769 0 60.254 11.806 118.718 35.090 173.768 22.485 53.16 54.669 100.898 95.659 141.888 40.99 40.989 88.728 73.174 141.888 95.659 55.050 23.284 113.514 35.090 173.768 35.090 60.255 0 118.719-11.806 173.769-35.090 53.16-22.485 100.898-54.669 141.889-95.659 40.99-40.99 73.174-88.728 95.659-141.888 23.284-55.050 35.090-113.514 35.090-173.768 0-60.255-11.806-118.719-35.090-173.769-22.485-53.161-54.669-100.899-95.659-141.889-40.99-40.99-88.729-73.175-141.889-95.66-55.050-23.284-113.514-35.090-173.769-35.090zM513.34 786.211c-221.141 0-401.051-179.911-401.051-401.051 0-221.142 179.911-401.054 401.051-401.054s401.053 179.913 401.053 401.054c0 221.14-179.913 401.051-401.053 401.051z"  horiz-adv-x="1024" />

    
    <glyph glyph-name="8888888" unicode="&#58885;" d="M750.809 896h-477.618c-24.74 0-44.847-20.106-44.847-44.847l0-934.307c0-24.74 20.106-44.847 44.847-44.847h477.618c24.74 0 44.847 20.106 44.847 44.847v934.307c0 24.74-20.106 44.847-44.847 44.847zM512 868.345c4.335 0 7.848-3.513 7.848-7.848s-3.513-7.848-7.848-7.848-7.848 3.513-7.848 7.848 3.513 7.848 7.848 7.848zM471.264 841.436h101.653c2.915 0 5.232-2.317 5.232-5.232 0-2.915-2.317-5.232-5.232-5.232l-101.653 0c-2.915 0-5.232 2.317-5.232 5.232 0 2.915 2.317 5.232 5.232 5.232zM437.629 848.911c7.026 0 12.707-5.681 12.707-12.707s-5.681-12.707-12.707-12.707-12.707 5.681-12.707 12.707 5.681 12.707 12.707 12.707zM512-117.536c-22.947 0-41.483 18.537-41.483 41.483s18.537 41.483 41.483 41.483 41.483-18.537 41.483-41.483-18.537-41.483-41.483-41.483zM763.515-24.105h-498.546v828.169h498.546v-828.169z"  horiz-adv-x="1024" />

    
    <glyph glyph-name="xiangmu" unicode="&#58886;" d="M756.030387 364.254284l-299.900348 0c-24.506137 0-44.298925 19.793812-44.298925 44.299949 0 24.499997 19.792788 44.292785 44.298925 44.292785l299.900348 0c24.506137 0 44.299949-19.792788 44.299949-44.292785C800.330336 384.048095 780.347213 364.254284 756.030387 364.254284L756.030387 364.254284 756.030387 364.254284zM756.030387 188.948629l-299.900348 0c-24.506137 0-44.298925 19.792788-44.298925 44.299949 0 24.505114 19.792788 44.293809 44.298925 44.293809l299.900348 0c24.506137 0 44.299949-19.788695 44.299949-44.293809C800.330336 208.740394 780.347213 188.948629 756.030387 188.948629L756.030387 188.948629 756.030387 188.948629zM959.611016 44.181501 959.611016 604.401736c0 68.049862-62.016449 61.639872-62.016449 61.639872s-370.211716-0.3776-350.418928 0c-21.1149-0.3776-31.860638 11.122315-31.860638 11.122315s-14.697747 25.445532-41.280172 65.408709c-27.708062 42.036395-59.942207 35.246759-59.942207 35.246759L141.524782 777.81939c-75.587536 0-76.342736-72.758094-76.342736-72.758094l0-657.30027c0-81.055061 61.262272-71.063499 61.262272-71.063499l776.805038 0C968.847377-23.30145 959.611016 44.181501 959.611016 44.181501L959.611016 44.181501 959.611016 44.181501zM904.004557 77.359135c0-25.073048-20.170388-45.24446-45.23832-45.24446L166.031942 32.114674c-25.074072 0-45.243437 20.171412-45.243437 45.24446L120.788505 546.343435c0 25.071002 20.169365 45.24139 45.243437 45.24139l692.734294 0c25.067932 0 45.23832-20.170388 45.23832-45.24139L904.004557 77.359135 904.004557 77.359135zM244.256538 408.554232c0-26.136264 21.180392-47.314609 47.312562-47.314609 26.130124 0 47.312562 21.178345 47.312562 47.314609 0 26.128077-21.182438 47.307446-47.312562 47.307446C265.437953 455.861678 244.256538 434.682309 244.256538 408.554232L244.256538 408.554232zM244.256538 233.248577c0-26.131147 21.180392-47.314609 47.312562-47.314609 26.130124 0 47.312562 21.183462 47.312562 47.314609 0 26.130124-21.182438 47.311539-47.312562 47.311539C265.437953 280.560116 244.256538 259.378701 244.256538 233.248577L244.256538 233.248577zM244.256538 233.248577"  horiz-adv-x="1024" />

    
    <glyph glyph-name="youjiantou" unicode="&#58906;" d="M512.746 830.668c-247.053 0-447.39-200.338-447.39-447.388 0-247.116 200.338-447.393 447.39-447.393 247.113 0 447.393 200.275 447.393 447.393-0.001 247.051-200.279 447.388-447.393 447.388zM512.746-32.889c-229.876 0-416.168 186.295-416.168 416.168 0 229.842 186.295 416.167 416.168 416.167s416.168-186.326 416.168-416.167c0.002-229.873-186.295-416.168-416.168-416.168zM408.505 161.77l24.265-26.89 224.127 248.406-224.127 248.391-24.265-26.898 199.905-221.508-199.905-221.501z"  horiz-adv-x="1024" />

    
    <glyph glyph-name="zhuanzhang" unicode="&#58916;" d="M537.276 401.116l188.901 205.361h-66.515l-146.331-160.602-154.313 160.602h-61.198l186.242-205.361v-15.797h-154.31v-36.861h154.31v-186.935h53.213v186.935h146.335v36.861h-146.335zM605.704 821.257v0M958.737 368.718c0.075 1.644 0.375 3.31 0.423 4.955l-1.644-0.224c-3.957 8.531-12.515 14.553-22.516 14.553-12.439 0-22.296-9.279-24.16-21.25l-1.793-0.298c-11.245-209.734-184.426-376.565-397.046-376.565-173.603 0-320.857 111.348-375.3 266.285l-0.375-0.048c-2.359 17.79-17.416 31.575-35.852 31.575-20.081 0-36.355-16.274-36.355-36.353 0-2.713 0.374-5.398 0.945-7.96-0.32-1.591-0.945-3.038-0.945-4.678v-149.294c0-13.758 11.148-24.881 24.881-24.881 13.738 0 24.886 11.122 24.886 24.881v93.831c74.321-144.345 224.587-243.124 398.115-243.124 235.388 0 427.377 181.861 445.44 412.62 1.495 3.188 2.44 6.648 2.44 10.379-0.002 1.987-0.674 3.734-1.144 5.596v0zM99.642 426.492c10.774 0 19.707 7.021 23.039 16.648l0.55-0.123c26.9 193.758 192.739 343.1 393.887 343.1 164.697 0 305.602-100.2 366.17-242.799l1.067 0.423c5.676-7.764 14.357-13.161 24.711-13.161 17.142 0 31.051 13.909 31.051 31.053 0 1.489-0.624 2.733-0.849 4.154l0.849 0.347 0 145.337c0 13.758-11.148 24.886-24.886 24.886-13.733 0-24.881-11.127-24.881-24.886v-76.735c-80.044 121.124-217.149 201.146-373.233 201.146-224.912 0-410.262-166.038-442.156-382.064l0.522-0.102c-0.101-0.869-0.522-1.617-0.522-2.536-0.001-13.637 11.046-24.689 24.681-24.689v0zM99.642 426.492z"  horiz-adv-x="1024" />

    
    <glyph glyph-name="zuojiantou" unicode="&#58899;" d="M331.61216 393.91232 331.61216 393.91232 724.31616 806.21568c8.33536 8.76544 8.33536 22.97856 0 31.72352-8.35584 8.76544-21.85216 8.76544-30.208 0L286.49472 409.94816c-0.06144-0.04096-0.18432-0.04096-0.2048-0.1024-4.1984-4.4032-6.26688-10.1376-6.26688-15.93344 0-5.71392 2.06848-11.48928 6.26688-15.85152 0.04096-0.06144 0.14336-0.06144 0.2048-0.14336l407.63392-427.95008c8.33536-8.76544 21.83168-8.76544 30.208 0 8.33536 8.76544 8.33536 22.95808 0 31.72352L331.61216 393.91232 331.61216 393.91232zM331.61216 393.91232"  horiz-adv-x="1024" />

    
    <glyph glyph-name="zuojiantou-copy" unicode="&#58900;" d="M268.021 794.635l37.074 36.811 450.965-447.442-451.044-447.453-37.074 36.783 413.942 410.724-413.863 410.576zM268.021 794.635z"  horiz-adv-x="1024" />

    
    <glyph glyph-name="zhanhuiluntan" unicode="&#58907;" d="M725.12 480.64c3.2 0.64 5.76 1.28 9.6 1.28 10.24 0 19.2-4.48 24.96-11.52 46.08 3.84 92.8 1.28 117.12 0-48 41.6-112 67.2-183.04 67.2-26.24 0-51.2-3.84-75.52-10.24C650.88 521.6 689.92 508.8 725.12 480.64zM533.12 307.84c34.56 67.84 95.36 115.2 127.36 137.6 10.88 7.68 26.24 13.44 44.16 17.28 1.28 3.84 3.84 7.68 7.04 10.88-39.68 27.52-87.04 37.12-122.88 44.16-45.44-17.92-84.48-47.36-113.28-84.48C484.48 397.44 499.2 350.08 524.8 307.2c1.92 0 3.2 0.64 5.12 0.64C531.2 307.84 532.48 307.84 533.12 307.84zM529.28 99.84c-25.6 58.24-26.88 110.08-16 154.88C504.96 259.84 499.2 268.8 499.2 279.04c0 5.76 1.92 10.88 5.12 15.36-24.32 37.76-38.4 78.08-43.52 115.84-21.12-35.2-33.28-75.52-33.28-118.4C427.52 214.4 467.2 144.64 529.28 99.84zM763.52 444.16c-0.64-0.64-0.64-1.92-1.28-2.56 21.76-29.44 39.68-67.84 49.28-119.04 10.88-55.04 3.2-102.4-14.72-142.08 55.68 3.84 108.16 19.84 152.96 44.8 6.4 21.12 10.24 44.16 10.24 67.2 0 59.52-23.04 113.92-61.44 156.8C855.04 454.4 809.6 452.48 763.52 444.16zM936.32 191.36c-1.28-0.64-60.8-24.96-140.16-30.08-1.28-13.44-12.8-23.68-26.88-25.6-8.96-11.52-19.2-22.4-30.08-32l-15.36 0 0 17.92c6.4 7.68 12.8 15.36 18.56 23.68-4.48 4.48-7.04 10.24-7.68 16.64-34.56 2.56-69.76 10.24-104.32 25.6-34.56 15.36-64 35.84-87.68 60.16-8.96-60.16 1.92-120.96 13.44-163.84 5.12-2.56 10.24-5.76 15.36-8.32l-153.6 0 0-58.24 159.36 0 0 55.04c9.6-4.48 19.84-8.32 30.08-11.52l0-65.92 172.16 0 0 65.28c10.24 3.2 20.48 7.04 30.08 11.52l0-54.4 145.92 0 0 58.24-138.88 0C869.12 100.48 912 141.44 936.32 191.36zM636.8 206.08c34.56-14.08 69.76-21.76 103.68-24.96 5.76 7.04 14.72 11.52 24.96 11.52 0.64 0 1.28 0 1.28 0 8.96 23.04 15.36 49.28 17.92 78.72 6.4 73.6-7.68 124.16-31.36 159.36-5.12-3.84-12.16-6.4-19.2-6.4-8.32 0-16 3.2-21.76 7.68-17.92-4.48-35.84-10.24-53.76-16.64-56.32-30.08-88.32-72.96-104.96-119.04 4.48-5.12 7.04-11.52 7.04-17.92 0-5.76-1.92-10.88-5.12-15.36C577.92 239.36 604.16 218.88 636.8 206.08zM298.88 325.76c-5.76 0-10.88-1.92-14.72-5.76l-55.68-48.64c-11.52-10.24-30.08-1.92-30.08 13.44 0 22.4-17.92 40.96-40.96 40.96L140.8 325.76c-26.88 0-49.28 21.76-49.28 49.28L91.52 695.68c0 26.88 21.76 49.28 49.28 49.28l444.8 0c26.88 0 49.28-21.76 49.28-49.28l0-138.24c8.96 1.28 17.92 1.92 27.52 1.92L662.4 701.44c0 39.68-32 71.68-71.68 71.68l-454.4 0c-39.68 0-71.68-32-71.68-71.68l0-337.28c0-39.68 32-71.68 71.68-71.68l29.44 0 0-80.64c0-8.32 5.12-16 12.8-19.2 2.56-1.28 5.76-1.92 8.96-1.92 5.12 0 10.24 1.92 14.08 5.12l110.72 96.64 101.76 0c0 4.48-0.64 9.6-0.64 14.08 0 6.4 0 12.8 0.64 19.2L298.88 325.76zM206.72 588.8l293.12 0c7.04 0 13.44 5.76 13.44 13.44 0 7.04-5.76 13.44-13.44 13.44L206.72 615.68c-7.04 0-13.44-5.76-13.44-13.44C193.28 594.56 199.04 588.8 206.72 588.8zM206.72 481.92l293.12 0c7.04 0 13.44 5.76 13.44 13.44 0 7.04-5.76 13.44-13.44 13.44L206.72 508.8c-7.04 0-13.44-5.76-13.44-13.44C193.28 488.32 199.04 481.92 206.72 481.92z"  horiz-adv-x="1024" />

    
    <glyph glyph-name="lianxiwomen" unicode="&#58923;" d="M1002.868015 351.668255c0 82.664989-38.006891 150.199131-85.870262 154.650846C871.900524 693.908614 706.738337 832.595416 509.86379 832.595416c-196.902352 0-362.084674-138.726112-407.154097-326.355895-47.511491-5.080689-85.124315-72.33582-85.124315-154.570307 0-85.54427 40.699206-154.891506 90.90397-154.891506 50.204764 0 90.90397-1.165903 90.90397 154.891506 0 88.88761-13.777019 126.771775-35.185139 142.915116 39.961888 157.079491 178.88839 273.385948 344.143581 273.385948C673.719131 767.970277 812.725213 651.505618 852.579715 494.262172l1.933903 0c-20.41576-16.315925-33.452584-54.274876-33.452584-142.593918 0-68.214891 8.113378-106.391491 21.563446-127.756464-11.685873-20.259476-47.22385-76.990801-103.274427-123.890577-43.799011-36.64827-102.787356-53.028434-140.471131-60.13603-17.011056 22.47239-53.366891 37.999221-95.472659 37.999221-58.401558 0-105.745258-29.867625-105.745258-66.711491 0-36.843865 47.3437-66.711491 105.745258-66.711491 36.396105 0 68.494861 11.601498 87.518442 29.260704 28.772674 13.697438 118.682367 57.985438 168.296509 99.330876 44.534412 37.111371 92.829243 98.514936 114.416659 127.209948 11.646562-3.328 24.632569-3.486202 38.326172-3.486202C962.169768 196.777708 1002.868015 266.124944 1002.868015 351.668255z"  horiz-adv-x="1024" />

    
    <glyph glyph-name="cloud" unicode="&#58889;" d="M797.967522 100.930993 216.2773 100.930993c-87.030146 0-152.650679 69.863161-152.650679 162.538887 0 78.464049 46.549176 141.217279 115.010407 157.998477 17.253966 84.009346 91.117231 145.57247 178.020486 145.57247 25.698289 0 51.007721-5.445012 74.190723-15.878642C474.555691 623.607146 551.913547 667.768949 637.50697 667.768949c133.392056 0 241.967914-109.008716 241.967914-243.075131 0-6.839779-0.285502-13.680581-0.839111-20.377096 49.695842-28.858258 81.099063-82.510202 81.099063-140.846842C959.734836 173.830303 887.182426 100.930993 797.967522 100.930993z"  horiz-adv-x="1024" />

    
    <glyph glyph-name="miyao" unicode="&#58924;" d="M819.2 588.8c0-172.8-140.8-307.2-307.2-307.2-172.8 0-307.2 140.8-307.2 307.2 0 166.4 134.4 307.2 307.2 307.2s307.2-140.8 307.2-307.2v0zM512 838.4c-140.8 0-249.6-115.2-249.6-249.6 0-134.4 108.8-256 249.6-256s256 115.2 256 249.6-115.2 256-256 256v0zM480 300.8h64v-428.8h-64v428.8zM512 192h192v-64h-192v64zM512 64h192v-64h-192v64z"  horiz-adv-x="1024" />

    
    <glyph glyph-name="gongsijieshao" unicode="&#58925;" d="M831.746348 35.223478 194.274682 35.223478c-56.914244 0-103.216803 46.302559-103.216803 103.216803L91.057879 630.432599c0 56.914244 46.302559 103.216803 103.216803 103.216803l637.471666 0c56.914244 0 103.216803-46.303582 103.216803-103.216803l0-491.992317C934.963151 81.526037 888.660592 35.223478 831.746348 35.223478zM194.274682 672.25103c-23.058159 0-41.818431-18.760273-41.818431-41.818431l0-491.992317c0-23.059182 18.760273-41.818431 41.818431-41.818431l637.471666 0c23.059182 0 41.818431 18.759249 41.818431 41.818431L873.564779 630.432599c0 23.059182-18.759249 41.818431-41.818431 41.818431L194.274682 672.25103zM348.243379 266.490679c-72.506361 0-131.494846 58.988486-131.494846 131.494846 0 72.506361 58.988486 131.494846 131.494846 131.494846s131.494846-58.988486 131.494846-131.494846C479.738225 325.478142 420.74974 266.490679 348.243379 266.490679zM348.243379 468.082c-38.651298 0-70.096475-31.445176-70.096475-70.096475 0-38.651298 31.445176-70.096475 70.096475-70.096475s70.096475 31.444153 70.096475 70.096475C418.339854 436.636824 386.894677 468.082 348.243379 468.082zM778.573311 468.082 572.901045 468.082c-16.954137 0-30.699186 13.745049-30.699186 30.699186s13.745049 30.699186 30.699186 30.699186l205.672266 0c16.954137 0 30.699186-13.745049 30.699186-30.699186S795.527448 468.082 778.573311 468.082zM778.573311 266.490679 572.901045 266.490679c-16.954137 0-30.699186 13.745049-30.699186 30.699186s13.745049 30.699186 30.699186 30.699186l205.672266 0c16.954137 0 30.699186-13.745049 30.699186-30.699186S795.527448 266.490679 778.573311 266.490679z"  horiz-adv-x="1024" />

    
    <glyph glyph-name="ios" unicode="&#58927;" d="M517.392097 535.543431 428.783963 564.189724C428.783963 564.189724 296.493731 615.643939 197.448509 506.924273 96.176766 395.81099 103.92032 258.80636 148.226529 134.762399 192.528454 10.689874 276.884917-125.919152 369.716158-127.681517 441.443288-129.042566 447.060292-88.825216 546.909575-89.522165 546.909575-89.522165 582.770998-94.275124 635.517709-113.355515 688.265848-132.467325 733.036214-135.753551 788.109419-79.949121 866.85459-0.21137 906.240744 120.40212 906.240744 120.40212 906.240744 120.40212 774.748861 168.831464 778.273592 311.286003 781.766903 453.740541 881.610473 487.843883 881.610473 487.843883 881.610473 487.843883 806.391461 615.972418 635.517709 573.729919L517.392097 535.543431ZM512.372069 660.647096C512.372069 660.647096 493.325954 866.85099 748.556169 896 748.556169 896 765.013006 677.099649 512.372069 660.647096L512.372069 660.647096Z"  horiz-adv-x="1024" />

    
    <glyph glyph-name="iconfontshuangjianxia" unicode="&#58897;" d="M492.279 368.483l-0.238-0.24 331.978-331.995 26.632 26.632-305.584 305.6 305.584 305.6-26.632 26.632-331.977-331.992zM539.196 62.881l-305.585 305.6 305.585 305.598-26.633 26.632-331.977-332.469 331.977-331.996z"  horiz-adv-x="1024" />

    
    <glyph glyph-name="shuangjianyou" unicode="&#58898;" d="M531.721 399.517l0.238 0.24-331.978 331.995-26.632-26.632 305.584-305.6-305.584-305.6 26.632-26.632 331.977 331.992zM484.804 705.119l305.585-305.6-305.585-305.598 26.633-26.632 331.977 332.469-331.977 331.996z"  horiz-adv-x="1024" />

    
    <glyph glyph-name="yuan" unicode="&#58922;" d="M512 839.68c-233.472 0-422.707-189.235-422.707-422.707s189.235-422.707 422.707-422.707 422.707 189.235 422.707 422.707c-0 233.472-189.235 422.707-422.707 422.707zM512 32.154c-212.582 0-384.819 172.237-384.819 384.819s172.237 384.819 384.819 384.819 384.819-172.237 384.819-384.819-172.237-384.819-384.819-384.819zM272.179 416.973c0-132.449 107.371-239.821 239.821-239.821s239.821 107.371 239.821 239.821c0 0 0 0 0 0 0 132.449-107.371 239.821-239.821 239.821-132.449 0-239.821-107.371-239.821-239.821z"  horiz-adv-x="1024" />

    
    <glyph glyph-name="liaotian1" unicode="&#58905;" d="M511.981-29.749c85.268 0 167.71 22.305 239.133 64.613l186.631-54.403-42.89 192.718c40.979 64.004 62.58 136.656 62.58 210.812 0 228.147-199.831 413.759-445.454 413.759-245.609 0-445.419-185.611-445.419-413.759 0.001-228.129 199.811-413.74 445.419-413.74v0zM744.067 88.778l-9.167-5.726c-65.85-41.176-142.941-62.935-222.918-62.935-218.644 0-396.529 163.226-396.529 363.874s177.89 363.893 396.528 363.893c218.658 0 396.569-163.244 396.569-363.893 0-67.548-20.741-133.814-59.986-191.663l-6.108-9.020 29.33-131.754-127.719 37.225zM607.311 382.767c0-26.743 21.254-48.404 47.473-48.404 26.221 0 47.474 21.661 47.474 48.404 0 26.721-21.254 48.4-47.474 48.4-26.219-0.001-47.473-21.681-47.473-48.4v0zM442.509 382.767c0-26.743 21.272-48.404 47.473-48.404 26.238 0 47.473 21.661 47.473 48.404 0 26.721-21.237 48.4-47.473 48.4-26.201-0.001-47.473-21.681-47.473-48.4v0zM277.719 382.767c0-26.743 21.254-48.426 47.473-48.426s47.474 21.683 47.474 48.426c0 26.739-21.255 48.4-47.474 48.4-26.219-0.001-47.473-21.657-47.473-48.4v0zM277.719 382.767z"  horiz-adv-x="1024" />

    
    <glyph glyph-name="daVrenzheng" unicode="&#58904;" d="M512-54.784c-66.56 0-156.672 46.592-235.008 121.344-86.016 81.92-135.168 178.176-135.168 263.168l0 349.184c0 12.8 10.24 23.552 23.040 23.552l34.304 0.512c3.072 0 74.752 2.048 148.48 32.256 77.824 31.232 129.536 68.096 130.048 68.608l20.48 14.848c4.096 3.072 8.704 4.608 13.824 4.608 5.12 0 9.728-1.536 13.824-4.608l20.48-14.848c2.048-1.536 52.224-37.376 129.536-68.608 73.728-30.208 145.408-32.256 148.48-32.256l34.304-0.512c12.8 0 23.040-10.752 23.040-23.552v-349.184c0-85.504-49.152-181.248-135.168-263.168-77.312-75.264-167.424-121.344-234.496-121.344zM189.44 329.216c0-72.192 44.032-155.648 120.32-228.864 67.584-64.512 148.992-108.032 202.24-108.032 53.248 0 134.656 43.52 202.24 108.032 76.8 73.216 120.32 156.672 120.32 228.864v326.144h-11.264c-3.584 0-83.968 2.56-165.376 35.84-80.896 32.768-133.632 70.144-139.264 74.24l-6.656 5.12-6.656-5.12c-2.048-1.536-56.32-40.448-139.264-74.24-81.92-33.28-162.304-35.328-165.376-35.84h-11.264v-326.144zM470.528 261.632c-7.168 0-13.824 2.56-18.944 7.68l-103.424 103.936c-5.12 5.12-7.68 11.776-7.68 18.944s2.56 13.824 7.68 18.944c5.12 5.12 11.776 7.68 18.944 7.68s13.824-2.56 18.944-7.68l84.48-84.48 187.904 187.904c5.12 5.12 11.776 7.68 18.944 7.68s13.824-2.56 18.944-7.68c10.24-10.24 10.24-27.648 0-37.888l-206.848-206.848c-5.12-5.12-11.776-8.192-18.944-8.192z"  horiz-adv-x="1024" />

    
    <glyph glyph-name="xianshiqi" unicode="&#58890;" d="M960 96 64 96c-38.4 0-64 25.6-64 64L0 832c0 38.4 25.6 64 64 64l896 0c38.4 0 64-25.6 64-64l0-672C1024 121.6 998.4 96 960 96zM960 768c0 38.4-25.6 64-64 64L128 832C89.6 832 64 806.4 64 768l0-448c0-38.4 25.6-64 64-64l768 0c38.4 0 64 25.6 64 64L960 768zM384-32 384 64l256 0 0-96c0 0 64-32 96-64C768-128 704-128 704-128L320-128c0 0-64 0-32 32C320-64 384-32 384-32z"  horiz-adv-x="1024" />

    
    <glyph glyph-name="gerenxinxi" unicode="&#58902;" d="M743.088 574.060c0 144.099-113.765 261.337-253.614 261.337-139.814 0-253.598-117.235-253.598-261.337 0-98.268 52.951-183.951 130.945-228.572-153.006-56.65-262.742-207.605-262.742-384.529 0-15.654 12.324-28.359 27.508-28.359 15.222 0 27.526 12.687 27.526 28.359 0 193.966 153.129 351.778 341.348 351.778 2.31 0 4.513 0.368 6.645 0.918 131.622 9.374 235.983 122.425 235.983 260.401M489.473 369.44c-109.479 0-198.546 91.774-198.546 204.62 0 112.827 89.068 204.603 198.546 204.603 109.495 0 198.564-91.774 198.564-204.603 0.020-112.846-89.068-204.62-198.564-204.62M542.253 221.259c0-15.638 12.338-28.359 27.526-28.359h322.606c15.222 0 27.526 12.702 27.526 28.359 0 15.654-12.304 28.359-27.526 28.359h-322.606c-15.185 0-27.526-12.702-27.526-28.359M892.38 133.65h-322.606c-15.185 0-27.526-12.687-27.526-28.375 0-15.654 12.338-28.359 27.526-28.359h322.606c15.222 0 27.526 12.687 27.526 28.359 0 15.689-12.304 28.375-27.526 28.375M892.38 3.501h-322.606c-15.185 0-27.526-12.687-27.526-28.359s12.338-28.359 27.526-28.359h322.606c15.222 0 27.526 12.687 27.526 28.359s-12.304 28.359-27.526 28.359z"  horiz-adv-x="1024" />

    
    <glyph glyph-name="shuangjiantou" unicode="&#59043;" d="M544.388 663.671l-33.448-33.45 229.967-229.946-229.967-230.026 33.468-33.409 263.416 263.394zM279.755 663.671l-33.449-33.45 229.967-229.946-229.967-230.026 33.469-33.409 263.415 263.394z"  horiz-adv-x="1024" />

    
    <glyph glyph-name="zhiwutixi" unicode="&#58926;" d="M576.875055 239.079376l-15.242146 26.440186c-2.758834 4.798283-3.15997 13.759375-0.6191 19.241226l10.201339 26.118867c1.639337 5.161556 7.938809 11.202133 13.199627 12.599969l30.820959 8.27957c10.758018 2.880607 19.176758 13.880125 19.176758 25.000394l0 54.841026c0 11.160177-8.419763 22.12081-19.176758 24.997324l-33.30043 8.964162c-5.381567 1.438769-12.022825 7.518231-14.121626 13.120832l-9.259898 21.276582c-2.498914 4.841262-2.299369 13.601786 0.440022 18.322297l17.859763 31.000038c5.559623 9.639544 3.780093 23.359011-4.120854 31.240515l-38.779212 38.758746c-7.636934 7.680936-21.838378 9.56075-31.220049 4.160763l-32.518624-18.760273c-4.599761-2.639107-13.641695-3.199878-19.179828-0.679475l-18.36016 7.40055c-5.180999 1.759063-11.242042 8.15882-12.640901 13.478989l-9.940396 36.919864c-2.87856 10.761088-13.860682 19.160385-25.000394 19.160385l-54.881958 0c-11.119245 0-22.077831-8.399297-24.977881-19.160385l-9.91993-36.919864c-1.421372-5.279237-7.482415-11.719926-13.081946-13.638625l-18.33867-7.401574c-4.718465-2.199085-14.220886-1.797949-18.819624 0.840134l-32.501228 18.760273c-9.398044 5.399987-23.599488 3.520173-31.221072-4.160763l-38.819121-38.758746c-7.879458-7.881504-9.660011-21.599947-4.100388-31.240515l17.86181-31.079856c2.740414-4.681626 2.960425-13.44215 0.257873-18.71934l-9.197476-21.159926c-1.941212-5.201465-8.601912-11.282974-13.982456-12.721743l-33.339316-8.962116c-10.741645-2.877537-19.160385-13.878079-19.160385-24.997324l-0.020466-54.880935c0-11.119245 8.419763-22.118763 19.180851-25.000394l30.859845-8.27957c5.259794-1.438769 11.559267-7.439436 13.378705-13.080923l10.180873-26.040073c2.359744-5.040806 1.958608-14.000875-0.778736-18.799158l-15.262612-26.440186c-5.558599-9.641591-3.778046-23.359011 4.120854-31.240515l38.779212-38.799678c7.641027-7.641027 21.842471-9.56075 31.240515-4.120854l24.941042 14.400988c4.481058 2.560312 13.260002 3.039219 18.84009 0.240477l28.861328-12.122085c5.221932-1.797949 11.280928-8.319479 12.700253-13.637602l7.341199-27.282367c2.899026-10.719132 13.858636-19.158339 24.977881-19.158339l54.881958 0c11.139711 0 22.12081 8.439206 25.000394 19.158339l7.318686 27.282367c1.440815 5.318122 7.481392 11.839653 13.141298 13.797237l28.879748 12.20088c4.582365 2.358721 13.879102 2.080382 18.380626-0.517793l24.940019-14.363126c9.378601-5.438872 23.582091-3.51915 31.220049 4.120854l38.779212 38.799678C580.634682 215.760275 582.433654 229.477694 576.875055 239.079376zM357.634772 217.477382c-91.922572 0-166.720116 74.800613-166.720116 166.723186 0 91.919503 74.798567 166.720116 166.720116 166.720116 91.938945 0 166.720116-74.800613 166.720116-166.720116C524.354887 292.277996 449.572694 217.477382 357.634772 217.477382zM965.175755 168.439526l-4.999874 39.358403c-1.020236 8.001231-8.05956 15.121396-16.039301 16.200984l-24.741497 3.400446c-3.981684 0.560772-9.31925 4.281513-11.320836 8.123005l-8.598842 14.437827c-2.238994 3.239787-2.879584 9.520841-1.358951 13.19758l9.998725 23.882943c3.100618 7.437389 0.580215 17.117866-5.8001 22.039969l-31.399127 24.319895c-6.161327 4.758374-16.539698 4.839215-22.780843 0.079818l-21.638833-16.400528c-3.039219-2.319835-9.480932-3.560082-13.701047-2.240017l-13.858636 3.641947c-3.880377 0.75827-8.821923 4.839215-10.301623 8.518001l-10.500145 25.602098c-3.058662 7.439436-11.700483 12.479219-19.701714 11.479449l-39.399335-4.999874c-7.978718-1.041726-15.077394-8.080026-16.180518-16.040325l-3.75758-27.399023c-0.520863-3.961218-4.299933-9.121751-8.142447-11.000542l-12.499685-6.999414c-3.177366-2.000564-10.039657-2.601244-13.579273-1.121544l-25.039279 10.478655c-7.261381 3.081175-17.263176 0.401136-22.040992-5.799076l-24.321942-31.401174c-4.960988-6.359848-4.979408-16.358573-0.099261-22.759353l15.659655-20.681018c2.399653-3.120061 3.341095-9.398044 1.880837-13.398148l-4.660136-16.040325c-0.920976-3.960195-5.142114-8.92016-8.881274-10.440793l-23.119557-9.480932c-7.460925-3.040243-12.500709-11.678994-11.479449-19.681248l4.998851-39.398312c1.02126-7.999185 8.06263-15.120372 16.040325-16.200984l22.921036-3.118014c3.898797-0.560772 8.976442-4.320399 10.79895-8.16189l9.680477-17.759479c2.159176-3.399423 2.699482-9.878998 1.159406-13.600763l-8.540514-20.358677c-3.120061-7.441483-0.577145-17.121959 5.802146-22.039969l31.399127-24.321942c6.15928-4.800329 16.520255-4.881171 22.779819-0.119727l16.59905 12.602016c2.981914 2.278903 9.243525 3.3984 13.501502 1.918699l21.840424-6.081509c3.900843-0.839111 8.839319-4.958942 10.360975-8.638751l7.757684-18.919908c3.059686-7.440459 11.683087-12.480242 19.681248-11.438517l39.399335 4.998851c7.981788 1.000793 15.101953 8.042163 16.200984 15.999392l2.758834 20.278859c0.541329 3.961218 4.28049 9.162684 8.182356 11.122315l19.597337 11.359722c3.080152 2.118244 9.779737 2.758834 13.240559 1.321088l19.218714-8.04114c7.239891-3.040243 17.260106-0.358157 22.040992 5.802146l24.320918 31.399127c4.91801 6.359848 4.958942 16.360619 0.100284 22.799262l-13.360286 17.558911c-2.420119 3.199878-3.52222 9.601682-2.179642 13.761422l4.91801 19.681248c0.721431 3.876284 4.680603 8.759501 8.319479 10.277064l21.383006 8.761548C961.156208 151.797497 966.195991 160.439318 965.175755 168.439526zM779.19497 43.199127c-66.00018-8.400321-126.518508 38.479383-134.90041 104.440677-8.399297 65.999157 38.480406 126.521578 104.461143 134.919852 66.018599 8.402367 126.519532-38.479383 134.899386-104.480586C892.057457 112.077867 845.19515 51.558515 779.19497 43.199127zM763.97636 548.758438c75.858712 0 137.337925 61.483306 137.337925 137.321552 0 75.841316-61.479213 137.360438-137.337925 137.360438-75.841316 0-137.342018-61.520145-137.342018-137.360438C626.634342 610.241744 688.135044 548.758438 763.97636 548.758438zM763.97636 760.280946c40.980343 0 74.198909-33.200146 74.198909-74.199932 0-40.958854-33.218566-74.200956-74.198909-74.200956-40.981367 0-74.199932 33.242102-74.199932 74.200956C689.776428 727.080799 722.994993 760.280946 763.97636 760.280946z"  horiz-adv-x="1024" />

    
    <glyph glyph-name="huiyuan" unicode="&#58888;" d="M232.727 384c-0-154.238 125.035-279.273 279.273-279.273s279.273 125.035 279.273 279.273c0 154.238-125.035 279.273-279.273 279.273-154.238 0-279.273-125.035-279.273-279.273z"  horiz-adv-x="1024" />

    
    <glyph glyph-name="daijinquan" unicode="&#58903;" d="M249.7 331.2v-48.2c6.1 1.5 14.5 4.6 25.3 9.2 29.1 9.2 49.8 16.8 62 23v-20.7h64.3v-2.3c7.6-65.9-37.6-109.5-135.6-131v-43.7c147 21.5 216.7 80.4 209.1 176.9h131v-87.3c1.5-21.5-10-31.4-34.5-29.9h-39.1v-48.2h68.9c53.6-1.5 79.6 23.8 78.1 75.8v110.3c4.6-1.5 11.5-3.8 20.7-6.9 30.6-10.7 55.1-18.4 73.5-23v46c-67.4 21.4-118 52.8-151.6 94.2h151.6v46l-250.2-0c6.1 13.8 11.5 29.9 16.1 48.2h211.4v46h-71.2c9.2 16.8 16.1 39.1 20.7 66.6h-66.6c-3.1-24.5-9.2-46.7-18.4-66.6h-71.2c1.5 13.8 2.3 29.1 2.3 46v39.1l-78.3 0v-85.1h-64.3c-7.7 19.9-13.8 42.1-18.4 66.6h-68.9c7.6-30.7 14.5-52.8 20.7-66.6h-64.3v-46h186.1c-4.6-18.4-10-34.5-16.1-48.2h-193v-46h160.8c-32.2-35.3-85.8-66.7-160.9-94.2zM497.9 425.4h41.4c26-35.3 55.9-62.8 89.6-82.7l-234.4 0c45.9 22.9 80.4 50.5 103.4 82.7zM511.7-64.5c-119.8 0-232.4 46.7-317.2 131.4-84.7 84.7-131.4 197.3-131.4 317.1 0 119.8 46.7 232.4 131.4 317.2 84.7 84.7 197.4 131.4 317.2 131.4 119.8 0 232.4-46.7 317.2-131.4 84.7-84.7 131.4-197.4 131.4-317.2 0-119.8-46.7-232.4-131.4-317.2-84.8-84.7-197.4-131.3-317.2-131.3zM511.7 801.7c-230.3 0-417.7-187.4-417.7-417.7s187.4-417.7 417.7-417.7c230.3 0 417.7 187.4 417.7 417.7 0 230.3-187.4 417.7-417.7 417.7z"  horiz-adv-x="1024" />

    
    <glyph glyph-name="peixun" unicode="&#58887;" d="M298.832288 530.933923c22.839315-68.517745 85.266389-68.517745 108.105704 0 7.613038 4.567903 15.226077 15.226077 16.748844 24.361883 1.522568 10.658374 0 22.839315-9.135606 22.839315-1.522568 31.974921-19.79398 59.381939-59.381939 59.381939s-59.381939-22.839315-60.904707-59.381939c-10.658374 0-10.658374-13.703509-9.135606-22.839315C283.606211 546.16 291.219249 535.501626 298.832288 530.933923L298.832288 530.933923zM443.480816 139.621633l0 24.361883c25.88445 0 47.201198 21.316547 47.201198 47.200998l0 1.522568 184.236488 184.236488c4.567903 4.567903 4.567903 13.703509 0 18.271412-4.567703 4.567903-13.703509 4.567903-18.271412 0l-165.965076-167.487643 0 156.82927c0 33.497489-24.361883 63.949842-59.381939 71.56288l-25.88445 4.567903-53.291468-105.060569-53.291468 105.060369-25.88445-4.567903c-35.020056-7.613038-59.381939-36.542824-59.381939-71.56288l0-194.894861c0-25.88445 21.316547-47.200998 47.200998-47.200998l0-24.361883 182.71392 0L443.481216 139.621633zM64.349467 304.064141c0-73.085448 59.381939-130.944819 130.945019-130.944819l1.522568 0c-6.090471 10.658174-10.658374 22.839115-10.658374 38.065392l0 18.271412c-36.542824 4.567903-65.47241 36.542824-65.47241 74.608216L120.686271 661.878742c0 41.110527 33.497489 76.130783 76.130783 76.130783l628.840246 0c41.110527 0 76.130783-33.497489 76.130783-76.130783l0-357.814602c0-41.110527-33.497689-76.130783-76.130783-76.130783l-280.161251 0-27.407018-27.407018c-1.522568-10.658174-6.090471-19.79398-10.658374-27.407018l316.704075 0c73.085648 0 130.945019 59.381939 130.945019 130.944819L955.079752 661.878742c0 73.085448-59.381939 130.945019-130.945019 130.945019L195.294486 792.823761c-71.56288 0-130.945019-59.381939-130.945019-130.945019L64.349467 304.064141 64.349467 304.064141zM248.585955 93.943203 151.138624 93.943203c-47.200998 0-86.789157-38.065392-86.789157-86.789157l0-31.974921L335.375112-24.820875l0 31.974921C335.375112 54.355243 295.787152 93.943203 248.585955 93.943203L248.585955 93.943203zM560.722126 93.943203l-97.447331 0c-47.200998 0-86.789157-38.065392-86.789157-86.789157l0-31.974921 271.025445 0 0 31.974921C647.511283 54.355243 607.923324 93.943203 560.722126 93.943203L560.722126 93.943203zM872.858298 93.943203l-97.447331 0c-47.200998 0-86.789157-38.065392-86.789157-86.789157l0-31.974921 271.025445 0 0 31.974921C958.124687 54.355243 920.059496 93.943203 872.858298 93.943203L872.858298 93.943203z"  horiz-adv-x="1024" />

    
    <glyph glyph-name="zhengque" unicode="&#58880;" d="M89.431 50.891c0.030 0.689 0.071 1.376 0.105 2.064-0.070-0.678-0.105-1.367-0.105-2.064zM846.146 490.587c-8.173 11.581-24.184 14.343-35.765 6.171l-431.769-304.671-145.738 207.298c-8.173 11.58-24.185 14.343-35.765 6.171-11.581-8.173-14.342-24.185-6.171-35.765l160.496-228.293c0.255-0.362 0.519-0.714 0.789-1.060 8.38-10.68 23.757-13.027 34.976-5.109l452.776 319.494c11.58 8.172 14.342 24.184 6.17 35.764zM504.787 879.541c-277.981 0-503.33-225.348-503.33-503.329 0-277.983 225.349-503.33 503.33-503.33 277.982 0 503.33 225.347 503.33 503.33 0 277.981-225.348 503.329-503.33 503.329zM504.787-74.572c-248.96 0-450.782 201.821-450.782 450.783 0 248.959 201.822 450.782 450.782 450.782 248.961 0 450.781-201.823 450.781-450.782 0-248.962-201.82-450.783-450.781-450.783z"  horiz-adv-x="1024" />

    
    <glyph glyph-name="shuangjiantouxia" unicode="&#58895;" d="M520.333294 105.924727l322.533834 317.240271c5.028527 4.925173 5.080715 12.94073 0.207731 17.969257-4.976338 5.03262-12.990872 5.084808-18.023492 0.107447L511.480672 132.906242 199.002868 445.32674c-4.976338 4.976338-12.990872 4.976338-17.96721 0-2.463098-2.514263-3.721765-5.816472-3.721765-9.06547 0-3.246951 1.203408-6.444782 3.721765-8.959046l321.376475-321.325309C507.338329 101.051743 515.304767 100.994438 520.333294 105.924727L520.333294 105.924727 520.333294 105.924727zM520.333294 105.924727M516.927731 461.881788 708.581726 650.337951c2.986007 2.882654 2.986007 7.652284 0.104377 10.689457-2.986007 2.986007-7.647167 2.986007-10.688433 0.052189L511.635191 477.91495 326.006424 663.542694c-2.933819 2.937912-7.703449 2.937912-10.689457 0-1.518586-1.51961-2.198062-3.457752-2.198062-5.396917 0-1.938142 0.731664-3.820002 2.198062-5.339612l190.974519-190.923354C509.173117 458.948993 513.941724 458.948993 516.927731 461.881788L516.927731 461.881788 516.927731 461.881788zM516.927731 461.881788"  horiz-adv-x="1024" />

    
    <glyph glyph-name="qiyerenzheng" unicode="&#58914;" d="M936.27 33.89l-112.462 166.402c62.083 72.767 99.737 166.912 99.737 270.211 0 228.993-185.739 414.73-414.73 414.73s-414.73-185.739-414.73-414.73c0-103.3 37.654-197.441 99.737-270.211l-112.462-166.402c-7.121-10.178-4.579-24.429 5.597-31.551l35.113-25.444c5.089-3.563 11.707-5.089 17.811-4.069l66.154 12.213 11.707-69.209c1.013-6.109 4.069-11.197 9.159-14.759l35.113-25.444c4.069-3.053 8.654-4.579 13.737-4.579 1.526 0 2.544 0 4.069 0.511 6.109 1.013 11.707 4.579 15.265 9.67l124.165 184.212c29.006-6.615 59.542-9.67 90.58-9.67s61.572 3.563 90.58 9.67l124.165-184.212c3.563-5.089 9.159-8.654 15.265-9.67 1.526 0 2.544-0.511 4.069-0.511 4.579 0 9.67 1.526 13.737 4.579l35.113 25.444c5.089 3.563 8.144 8.654 9.159 14.759l11.707 69.209 66.154-12.213c6.109-1.013 12.724 0.511 17.811 4.069l35.113 25.444c8.144 7.634 10.686 21.373 3.563 31.551zM269.138-72.978l-8.144 5.597-14.249 82.946c-1.013 6.109-4.579 11.707-9.67 14.759-5.089 3.563-11.197 5.089-17.299 3.563l-79.385-14.249-9.159 6.615 94.65 139.94c41.218-38.672 90.58-68.698 145.54-87.529l-102.284-151.647zM508.815 101.566c-203.547 0-368.929 164.876-368.929 368.929 0 203.547 164.876 368.929 368.929 368.929 203.547 0 368.929-164.876 368.929-368.929 0-203.547-165.383-368.929-368.929-368.929zM876.731 20.146l-79.385 14.249c-6.109 1.013-12.213-0.511-17.299-3.563-5.089-3.563-8.654-9.159-9.67-14.759l-14.249-82.946-8.144-5.597-102.284 152.151c54.452 18.828 103.813 49.362 145.54 87.529l94.65-139.94-9.159-7.121zM508.815 226.747c-134.336 0-243.749 109.405-243.749 243.749s109.405 243.749 243.749 243.749c134.336 0 243.749-109.405 243.749-243.749s-109.405-243.749-243.749-243.749zM508.815 668.446c-108.895 0-197.952-88.543-197.952-197.952s88.543-197.952 197.952-197.952c108.895 0 197.952 88.543 197.952 197.952s-89.055 197.952-197.952 197.952z"  horiz-adv-x="1024" />

    
    <glyph glyph-name="shanghua" unicode="&#58896;" d="M503.667 662.075l-322.534-317.241c-5.030-4.925-5.081-12.941-0.208-17.969 4.976-5.032 12.991-5.086 18.023-0.107l313.571 308.335 312.478-312.42c4.976-4.976 12.991-4.977 17.968 0 2.463 2.514 3.722 5.816 3.722 9.065 0 3.247-1.203 6.445-3.722 8.959l-321.376 321.325c-4.926 4.925-12.893 4.982-17.921 0.052v0 0zM503.667 662.075zM507.071 306.118l-191.654-188.456c-2.986-2.883-2.986-7.652-0.104-10.689 2.986-2.986 7.647-2.986 10.688-0.052l186.362 183.165 185.629-185.628c2.934-2.938 7.703-2.938 10.689 0 1.519 1.52 2.198 3.458 2.198 5.397 0 1.937-0.732 3.82-2.198 5.34l-190.975 190.923c-2.882 2.934-7.65 2.934-10.636 0.001v0 0zM507.071 306.118z"  horiz-adv-x="1024" />

    
    <glyph glyph-name="qi" unicode="&#58910;" d="M922.458 419.866c-179.582 91.317-314.576 195.82-404.973 313.497-95.921-119.515-234.591-227.847-416.005-324.989-7.054 10.414-19.005 25.584-35.855 45.507 203.787 100.51 351.651 217.116 443.586 349.811l58.38-7.355c-3.987-4.906-9.503-12.11-16.549-21.604-1.228-1.228-1.997-2.148-2.298-2.758 96.532-124.73 232.746-226.469 408.65-305.224-14.409-16.858-26.051-32.487-34.936-46.887zM501.398 522.372h51.023v-204.094h281.321v-48.266l-281.321 0v-258.796h376.473v-49.184l-847.179 0v49.184h149.853v353.948h50.565v-353.949h219.265v511.158z"  horiz-adv-x="1024" />

    
    <glyph glyph-name="shenqing" unicode="&#58932;" d="M775.3-128 119.7-128c-46.4 0-84.1 36.7-84.1 81.8L35.6 756.1c0 45.1 37.7 81.9 84.1 81.9l569.8 0 0-47.6L119.7 790.4c-20.1 0-36.5-15.4-36.5-34.3l0-802.2c0-18.9 16.4-34.3 36.5-34.3l655.5 0c20.1 0 36.5 15.4 36.5 34.3l0 618.4 47.6 0 0-618.4C859.3-91.3 821.6-128 775.3-128zM736.5 555.9l-88.3 88.3L900.1 896l88.2-88.3L736.5 555.9zM698.7 644.2l37.9-37.8L937.9 807.7l-37.8 37.8L698.7 644.2zM911.3 737.6l-13.5 12.2-67.7 67.6 25.7 24.8L869 830.4l67.1-67.2L911.3 737.6zM611 517.9l31.9 117.7 86-86.4L611 517.9zM655 589.6l-10.3-38.2 38.2 10.1L655 589.6zM206.1 589.3l314.6 0 0-46.8L206.1 542.5 206.1 589.3 206.1 589.3zM206.1 407l460.8 0 0-46.8L206.1 360.2 206.1 407 206.1 407zM206.1 231.9l460.8 0 0-46.8L206.1 185.1 206.1 231.9 206.1 231.9z"  horiz-adv-x="1024" />

    
    <glyph glyph-name="baobiao" unicode="&#58891;" d="M4.405845 821.011098l94.348831 0 0-857.67488-94.348831 0 0 857.67488ZM4.405845 57.686073l1016.503259 0 0-94.348831-1016.503259 0 0 94.348831ZM181.637362 318.508403l187.255825 0 0-202.015993-187.255825 0 0 202.015993ZM451.776895 730.830193l187.254801 0 0-614.337783-187.254801 0 0 614.337783ZM721.916429 523.237181l187.254801 0 0-406.744771-187.254801 0 0 406.744771Z"  horiz-adv-x="1024" />

    
    <glyph glyph-name="icon-copy" unicode="&#58884;" d="M511.571 842.56c-253.009 0-458.11-205.102-458.11-458.109 0-253.009 205.102-458.109 458.11-458.109 253.007 0 458.108 205.101 458.108 458.109-0.001 253.006-205.103 458.109-458.108 458.109zM409.767 130.057l-203.55 203.547 50.791 50.791 152.759-152.759 356.362 356.364 50.79-50.789-407.152-407.154z"  horiz-adv-x="1024" />

    
    <glyph glyph-name="yoaliucheng" unicode="&#58892;" d="M608 832 480 832c-53.013333 0-96-42.986667-96-96s42.986667-96 96-96l128 0c53.013333 0 96 42.986667 96 96S661.013333 832 608 832zM608 704 480 704c-17.6 0-32 14.4-32 32s14.4 32 32 32l128 0c17.6 0 32-14.4 32-32S625.6 704 608 704zM608 512 480 512c-53.013333 0-96-42.986667-96-96s42.986667-96 96-96l128 0c53.013333 0 96 42.986667 96 96S661.013333 512 608 512zM608 384 480 384c-17.6 0-32 14.4-32 32s14.4 32 32 32l128 0c17.6 0 32-14.4 32-32S625.6 384 608 384zM608 192 480 192c-53.013333 0-96-42.986667-96-96s42.986667-96 96-96l128 0c53.013333 0 96 42.986667 96 96S661.013333 192 608 192zM608 64 480 64c-17.6 0-32 14.4-32 32s14.4 32 32 32l128 0c17.6 0 32-14.4 32-32S625.6 64 608 64zM256 128c-34.24 0-66.346667 13.333333-90.56 37.44C141.333333 189.653333 128 221.76 128 256c0 34.24 13.333333 66.346667 37.44 90.56 24.213333 24.213333 56.32 37.44 90.56 37.44l64 0 0 64-64 0c-106.026667 0-192-85.973333-192-192l0 0c0-106.026667 85.973333-192 192-192l0-64 96 96-96 96L256 128zM832 768l-64 0 0-64 64 0c34.24 0 66.346667-13.333333 90.56-37.44 24.213333-24.213333 37.44-56.32 37.44-90.56 0-34.24-13.333333-66.346667-37.44-90.56C898.346667 461.333333 866.24 448 832 448l0 64-96-96 96-96 0 64c106.026667 0 192 85.973333 192 192l0 0C1024 682.026667 938.026667 768 832 768z"  horiz-adv-x="1024" />

    
    <glyph glyph-name="costrecording" unicode="&#58911;" d="M615.997 614.668l-100.362-105.568-106.306 106.144c-12.353 12.386-32.344 12.288-44.628 0-12.386-12.417-12.909-32.457-0.592-44.826l116.821-117.264v-5.881h-93.627c-17.428 0-31.586-14.141-31.586-31.671 0-17.459 14.159-31.621 31.586-31.621h93.627v-63.306h-93.627c-17.428 0-31.586-14.159-31.586-31.671 0-17.527 14.159-31.603 31.586-31.603h93.627v-94.104c0-17.51 14.159-31.621 31.635-31.621s31.652 14.093 31.652 31.621v94.104h95.861c17.477 0 31.635 14.062 31.635 31.603 0 17.493-14.141 31.671-31.635 31.671h-95.861v63.321h95.861c17.477 0 31.635 14.159 31.635 31.621 0 17.51-14.141 31.671-31.635 31.671h-95.861v1.266l117.117 122.554c12.023 12.648 11.925 32.654-0.788 44.711-6.062 5.783-13.913 8.689-21.73 8.689-8.246 0-16.526-3.236-22.816-9.838M690.522 710.482c-17.51 0-31.749-14.209-31.749-31.749 0-17.608 14.225-31.833 31.749-31.833h232.902c17.459 0 31.719 14.225 31.719 31.833 0 17.527-14.258 31.749-31.719 31.749h-232.902zM512.974 826.989h-0.049c-0.231 0-0.329 0-0.459 0-243.923 0-442.398-198.67-442.398-442.989 0-244.45 198.325-443.005 442.544-443.005 243.99 0 442.511 198.753 442.511 443.005 0 7.64-0.197 15.358-0.608 22.898v-21.157c0 17.281-14.028 31.357-31.324 31.357-17.346 0-31.309-14.077-31.309-31.357v-1.741c0-209.397-170.090-379.699-379.273-379.882-208.938 0-379.387 170.73-379.387 379.882 0 209.397 170.206 379.684 379.387 379.684h11.201c17.394 0 31.603 14.175 31.603 31.719 0 17.428-14.209 31.586-31.603 31.586h-10.84z"  horiz-adv-x="1024" />

    
    <glyph glyph-name="luntanline" unicode="&#58901;" d="M213.333 579.097h447.998v42.171h-447.998v-42.171zM213.333 389.189h447.998v42.213h-447.998v-42.213zM789.33 684.536c0 75.25-55.445 126.598-127.999 126.598h-447.998c-75.221 0-127.999-52.656-127.999-126.598v-358.635c0-75.229 52.778-126.556 127.999-126.556h42.666v-119.995c0-30.779 21.696-22.256 50.005-0.675 50.922 38.838 155.327 120.67 155.327 120.67h199.999c64.554 0 127.999 61.875 127.999 126.556v358.635zM682.664 157.174h-204.010c0 0-118.869-91.578-186.41-142.8-40.768-30.885-79.36-9.936-79.36 37.277v105.523h-20.885c-81.792 0-149.333 65.44-149.333 147.652v400.848c0 83.499 64.874 147.652 149.333 147.652h490.664c85.802 0 149.333-62.845 149.333-147.652v-400.848c0-72.972-76.864-147.652-149.333-147.652v0zM853.33 72.768h-21.547v-66.158c0-38.88-42.56-73.309-95.616-27.151-40.128 34.914-105.493 93.308-105.493 93.308h-54.677v42.15l72 0.042c0 0 67.925-65.314 103.338-97.295 28.181-25.442 37.674 7.215 37.674 26.75 0 23.037 0.32 70.546 0.32 70.546l42.666-0.042c63.232 0 106.666 65.862 106.666 126.577v379.752c0 59.723-26.027 92.507-64.128 100.924 0 9.472-0.021 37.214-0.021 46.876 61.568-7.574 106.816-52.297 106.816-126.703v-421.902c0-70.356-55.53-147.673-127.999-147.673v0z"  horiz-adv-x="1024" />

    
    <glyph glyph-name="xiaofei" unicode="&#58917;" d="M347.131 239.508c0.671 0.978 1.444 1.879 1.894 3 0.804 2.012 1.239 4.132 1.239 6.267 0 2.145-0.435 4.27-1.239 6.287-0.425 1.070-1.172 1.91-1.802 2.857-0.522 0.783-0.835 1.679-1.505 2.391l-89.682 94.843c-6.221 6.579-16.497 6.769-22.938 0.399-6.456-6.349-6.625-16.85-0.399-23.434l63.114-66.76-213.704 0c-8.955 0-16.22-7.419-16.22-16.573 0-9.149 7.265-16.568 16.22-16.568h213.709l-63.119-66.78c-6.221-6.579-6.052-17.070 0.399-23.439 6.441-6.349 16.712-6.17 22.938 0.41l89.672 94.848c0.635 0.676 0.922 1.516 1.423 2.253zM415.437 327.25c-9.81 0-17.772-8.141-17.772-18.181 0-10.071 7.962-18.191 17.772-18.191h112.568v-77.517c0-10.061 7.967-18.186 17.777-18.186s17.772 8.125 17.772 18.186v77.517h112.568c9.81 0 17.772 8.12 17.772 18.191 0 10.035-7.962 18.181-17.772 18.181h-112.568v41.784h112.568c9.81 0 17.782 8.125 17.782 18.176s-7.972 18.196-17.782 18.196h-112.568v21.924c0.87 1.541 1.49 3.082 1.879 4.756l104.407 111.38c6.932 7.107 6.932 18.611 0 25.713-6.943 7.107-18.207 7.107-25.149 0l-98.908-106.537-98.918 106.542c-6.932 7.107-18.191 7.107-25.134 0-6.943-7.101-6.943-18.611 0-25.713l104.392-111.391c0.389-1.669 1.014-3.22 1.879-4.746v-21.924h-112.563c-9.81 0-17.772-8.151-17.772-18.196 0-10.056 7.962-18.181 17.772-18.181h112.568v-41.784h-112.568zM924.221 548.004c-20.941 49.649-50.918 94.223-89.098 132.506-38.211 38.257-82.668 68.311-132.193 89.293-51.297 21.745-105.754 32.768-161.9 32.768s-110.602-11.028-161.874-32.768c-49.556-20.982-94.034-51.036-132.229-89.293-38.17-38.303-68.137-82.857-89.088-132.506-21.673-51.41-32.691-105.994-32.696-162.263h0.42c0.599-9.354 8.3-16.778 17.807-16.778s17.208 7.424 17.807 16.778h0.108c0 209.874 170.378 380.636 379.75 380.636 209.393 0 379.756-170.762 379.756-380.636 0-209.879-170.348-380.616-379.756-380.616-74.542 0-144.072 21.724-202.793 59.059h-0.046l-0.102-0.184c-2.826 1.802-6.164 2.877-9.764 2.877-10.071 0-18.237-8.172-18.237-18.237 0-5.56 2.54-10.476 6.461-13.819l-0.164-0.148c0.512-0.333 1.014-0.64 1.521-0.968 0.215-0.148 0.435-0.282 0.65-0.42 19.85-12.82 38.41-22.195 60.595-31.58 51.272-21.745 105.733-32.788 161.874-32.788 56.146 0 110.607 11.044 161.9 32.788 49.531 20.982 94.003 51.016 132.193 89.288 38.18 38.303 68.157 82.867 89.098 132.511 21.668 51.379 32.691 105.969 32.691 162.243s-11.023 110.848-32.691 162.258z"  horiz-adv-x="1024" />

    


  </font>
</defs>
</svg>
